<?xml version="1.0" encoding="utf-8"?>
<!-- Generator: Adobe Illustrator 15.0.2, SVG Export Plug-In  -->
<!DOCTYPE svg PUBLIC "-//W3C//DTD SVG 1.1//EN" "http://www.w3.org/Graphics/SVG/1.1/DTD/svg11.dtd" [
	<!ENTITY ns_flows "http://ns.adobe.com/Flows/1.0/">
]>
<svg version="1.1"
	 xmlns="http://www.w3.org/2000/svg" xmlns:xlink="http://www.w3.org/1999/xlink" xmlns:a="http://ns.adobe.com/AdobeSVGViewerExtensions/3.0/"
	 x="0px" y="0px" width="36px" height="306px" viewBox="0 0 36 306" overflow="visible" enable-background="new 0 0 36 306"
	 xml:space="preserve">
<defs>
</defs>
<path fill="#383838" d="M33.407,108H2.705c-1.47,0-2.662,1.155-2.662,2.581v30.862c0,1.426,1.192,2.583,2.662,2.583h30.703
	c1.469,0,2.66-1.157,2.66-2.582v-30.863C36.066,109.156,34.878,108,33.407,108z M34.023,126.779
	c-2.053-0.336-4.541-0.847-7.094-0.918c-1.055,2.08-3.178,3.103-6.104,3.319c0.313,0.685,0.916,0.943,1.063,2.047
	c0.219,1.646-0.344,4.057,0.213,5.154c0.267,0.523,0.699,0.539,0.992,0.988c-0.719,0.85-2.494-0.096-2.697-0.988
	c-0.346-1.531,0.527-3.906-0.426-4.945c0.066,1.672-0.395,4.018,0.072,5.512c0.182,0.586,0.713,0.812,0.564,1.34
	c-3.333,0.338-1.938-4.314-2.484-7.064c-0.502,0.041-0.281,0.756-0.281,1.062c-0.016,2.684,0.547,6.361-2.345,6.002
	c-0.084-0.562,0.389-0.754,0.569-1.27c0.526-1.51-0.101-3.758,0.142-5.582c-1.104,0.834,0.116,3.738-0.567,5.229
	c-0.395,0.859-1.664,1.229-2.626,0.846c0.124-0.635,0.782-0.535,1.063-1.129c0.391-0.83,0.004-2.025,0.143-3.246
	c-2.043,0.404-3.627-0.059-4.402-1.344c-0.348-0.576-0.434-1.255-0.852-1.767c-0.418-0.509-1.084-0.579-1.277-1.271
	c2.529-0.607,2.625,2.604,4.898,2.682c0.697,0.025,1.059-0.197,1.702-0.35c0.182-0.811,0.565-1.415,1.136-1.838
	c-2.826-0.387-5.16-1.267-6.246-3.388c-2.57,0.125-4.921,0.469-7.099,0.987c1.977-0.718,4.414-0.975,7.028-1.06
	c-0.154-0.925-1.505-0.671-2.344-0.635c-1.556,0.069-3.519,0.262-4.756,0.496c1.795-0.642,4.313-0.561,6.744-0.566
	c-0.744-2.332-0.486-6.036,1.137-7.414c-0.459-1.159-0.317-3.054,0.283-3.955c1.811,0.08,2.908,0.871,4.047,1.624
	c1.411-0.401,2.895-0.6,4.828-0.495c0.812,0.045,1.658,0.41,2.271,0.353c0.602-0.056,1.262-0.73,1.846-0.988
	c0.762-0.335,1.404-0.464,2.271-0.495c0.416,0.947,0.688,2.521,0.285,3.672c1.646,1.407,2.215,4.831,1.42,7.626
	c2.352,0.18,5.147-0.085,6.957,0.636c-1.691-0.218-3.998-0.644-6.177-0.496c-0.414,0.029-1.022-0.016-0.991,0.565
	C29.45,125.917,31.958,126.132,34.023,126.779z"/>
<polygon fill="#383838" points="31.837,80.025 31.837,64.099 23.883,72.063 "/>
<path fill="#383838" d="M33.338,54H2.671c-1.468,0-2.659,1.154-2.659,2.578v30.826c0,1.424,1.19,2.58,2.659,2.58h30.667
	c1.469,0,2.658-1.156,2.658-2.579V56.578C35.996,55.154,34.809,54,33.338,54z M34.014,62.132V81.99v0.248h-32V81.99V62.132v-0.368
	h32V62.132z"/>
<polygon fill="#383838" points="18.013,77.938 13.88,73.797 7.394,80.297 28.632,80.297 22.146,73.797 "/>
<path fill="#383838" d="M15.612,72.063l2.4,2.396l2.396-2.396l1.736-1.743l6.485-6.494H7.394l6.486,6.494L15.612,72.063z
	 M19.361,70.178v0.051h-0.034C19.338,70.214,19.352,70.196,19.361,70.178z"/>
<polygon fill="#383838" points="4.188,64.099 4.188,80.025 12.147,72.063 "/>
<path fill="#383838" d="M33.365,162H2.662C1.192,162,0,163.154,0,164.582v30.861
	c0,1.426,1.192,2.582,2.662,2.582h30.703c1.47,0,2.66-1.156,2.66-2.582v-30.861C36.025,163.156,34.835,162,33.365,162z
	 M10.922,192.156H5.479v-16.266h5.443V192.156z M8.201,173.669H8.164c-1.825,0-3.008-1.249-3.008-2.812
	c0-1.594,1.218-2.81,3.079-2.81c1.862,0,3.007,1.214,3.042,2.81C11.278,172.42,10.097,173.669,8.201,173.669z M30.542,192.156
	h-5.438v-8.701c0-2.188-0.791-3.68-2.76-3.68c-1.505,0-2.396,1.007-2.789,1.978c-0.146,0.349-0.182,0.833-0.182,1.317v9.086h-5.441
	c0,0,0.072-14.74,0-16.266h5.441v2.305c0.723-1.107,2.014-2.688,4.9-2.688c3.584,0,6.269,2.323,6.269,7.321V192.156L30.542,192.156z
	 M19.337,178.248c0.011-0.016,0.022-0.034,0.036-0.051v0.051H19.337z"/>
<path fill="#383838" d="M33.348,216H2.68c-1.468,0-2.659,1.154-2.659,2.578v30.826c0,1.424,1.19,2.58,2.659,2.58h30.667
	c1.469,0,2.657-1.156,2.657-2.58v-30.826C36.005,217.154,34.816,216,33.348,216z M30.227,234.588
	c-2.613,10.584-20.141,15.073-28.205,4.086c3.088,2.946,8.466,3.206,11.878-0.318c-2,0.293-3.455-1.668-0.998-2.729
	c-2.21,0.242-3.439-0.934-3.943-1.932c0.518-0.543,1.09-0.793,2.195-0.867c-2.419-0.572-3.312-1.754-3.586-3.189
	c0.672-0.162,1.512-0.298,1.971-0.236c-2.12-1.108-2.856-2.774-2.74-4.027c3.787,1.406,6.199,2.535,8.216,3.617
	c0.719,0.383,1.521,1.072,2.425,1.949c1.152-3.043,2.576-6.183,5.013-7.739c-0.041,0.354-0.229,0.682-0.48,0.95
	c0.692-0.627,1.59-1.06,2.504-1.185c-0.105,0.685-1.093,1.071-1.688,1.296c0.453-0.141,2.853-1.211,3.11-0.601
	c0.312,0.692-1.653,1.012-1.986,1.133c-0.25,0.083-0.499,0.175-0.746,0.274c3.041-0.303,5.943,2.205,6.791,5.315
	c0.061,0.226,0.121,0.474,0.175,0.734c1.112,0.414,3.126-0.021,3.776-0.419c-0.471,1.109-1.69,1.927-3.489,2.076
	c0.867,0.361,2.501,0.559,3.629,0.367C33.333,233.91,32.184,234.604,30.227,234.588z"/>
<g>
	<defs>
		<path id="SVGID_1_" d="M33.346,0H2.679C1.211,0,0.021,1.154,0.021,2.578v30.826c0,1.424,1.19,2.58,2.659,2.58h30.667
			c1.469,0,2.657-1.156,2.657-2.579V2.578C36.004,1.154,34.814,0,33.346,0z M19.335,16.229c0.011-0.015,0.022-0.033,0.035-0.051
			v0.051H19.335z"/>
	</defs>
	<clipPath id="SVGID_2_">
		<use xlink:href="#SVGID_1_"  overflow="visible"/>
	</clipPath>
	<path clip-path="url(#SVGID_2_)" fill="#383838" d="M35.229,0H0.771c-0.415,0-0.75,0.337-0.75,0.751v34.455
		c0,0.418,0.336,0.752,0.751,0.752h34.457c0.414,0,0.752-0.334,0.752-0.752V0.751C35.98,0.337,35.645,0,35.229,0z M18,34.455V17.979
		H1.524V1.505H18v16.474h16.475v16.476H18z"/>
</g>
<path fill="#383838" d="M13.13,272.25c-3.001-3-7.865-3-10.867,0c-3,3.001-3,7.868,0,10.867c2.587,2.59,6.561,2.938,9.531,1.062
	l4.037,4.037l2.396-2.396l-4.037-4.037C16.069,278.812,15.718,274.839,13.13,272.25z M11.444,281.432
	c-2.071,2.067-5.427,2.067-7.495,0c-2.071-2.07-2.071-5.427,0-7.494c2.068-2.07,5.424-2.07,7.495,0
	C13.513,276.005,13.513,279.361,11.444,281.432z"/>
</svg>
